<svg aria-hidden="true" style="position: absolute; width: 0; height: 0; overflow: hidden;" version="1.1" xmlns="http://www.w3.org/2000/svg" xmlns:xlink="http://www.w3.org/1999/xlink">
<defs>
<symbol id="icon-success-filled" viewBox="0 0 32 32">
<path d="M16 2c3.713 0 7.274 1.475 9.899 4.101s4.101 6.186 4.101 9.899-1.475 7.274-4.101 9.899c-2.625 2.626-6.186 4.101-9.899 4.101s-7.274-1.475-9.899-4.101c-2.626-2.625-4.101-6.186-4.101-9.899s1.475-7.274 4.101-9.899c2.626-2.626 6.186-4.101 9.899-4.101zM14.256 18.762l-3.11-3.112c-0.111-0.111-0.244-0.2-0.39-0.26s-0.302-0.091-0.459-0.091c-0.158 0-0.314 0.031-0.459 0.091s-0.278 0.149-0.39 0.26c-0.225 0.225-0.352 0.531-0.352 0.849s0.127 0.624 0.352 0.849l3.96 3.96c0.111 0.112 0.243 0.201 0.389 0.262s0.302 0.092 0.46 0.092 0.314-0.031 0.46-0.092c0.146-0.061 0.278-0.15 0.389-0.262l8.2-8.202c0.113-0.111 0.203-0.243 0.264-0.389s0.094-0.303 0.094-0.461c0.001-0.158-0.030-0.315-0.090-0.462s-0.149-0.28-0.261-0.392c-0.112-0.112-0.245-0.201-0.391-0.261s-0.303-0.091-0.462-0.091-0.315 0.032-0.461 0.094c-0.146 0.061-0.278 0.151-0.39 0.264l-7.354 7.354z"></path>
</symbol>
<symbol id="icon-x-2" viewBox="0 0 32 32">
<path d="M7.2 7.55c-0.2 0.3 1.4 2.25 3.6 4.5l3.95 3.95-4 4c-3.15 3.15-3.85 4.1-3.35 4.6s1.45-0.2 4.6-3.35l4-4 4 4c3.15 3.15 4.1 3.85 4.6 3.35s-0.2-1.45-3.35-4.6l-4-4 4-4c3.15-3.15 3.85-4.1 3.35-4.6s-1.45 0.2-4.6 3.35l-4 4-3.9-3.9c-2.1-2.1-4-3.85-4.2-3.85s-0.5 0.25-0.7 0.55z"></path>
</symbol>
</defs>
</svg>
