<svg aria-hidden="true" style="position: absolute; width: 0; height: 0; overflow: hidden;" version="1.1" xmlns="http://www.w3.org/2000/svg" xmlns:xlink="http://www.w3.org/1999/xlink">
<defs>
<symbol id="icon-x-2" viewBox="0 0 32 32">
<path d="M7.2 7.55c-0.2 0.3 1.4 2.25 3.6 4.5l3.95 3.95-4 4c-3.15 3.15-3.85 4.1-3.35 4.6s1.45-0.2 4.6-3.35l4-4 4 4c3.15 3.15 4.1 3.85 4.6 3.35s-0.2-1.45-3.35-4.6l-4-4 4-4c3.15-3.15 3.85-4.1 3.35-4.6s-1.45 0.2-4.6 3.35l-4 4-3.9-3.9c-2.1-2.1-4-3.85-4.2-3.85s-0.5 0.25-0.7 0.55z"></path>
</symbol>
</defs>
</svg>
